<mxfile host="app.diagrams.net" modified="2023-12-12T06:22:05.697Z" agent="Mozilla/5.0 (Windows NT 10.0; Win64; x64) AppleWebKit/537.36 (KHTML, like Gecko) Chrome/119.0.0.0 Safari/537.36" etag="6yFylEXr0bdmOKMP6Q2J" version="22.1.7" type="device">
  <diagram name="Страница — 1" id="BGVivmdMPbJRiv8pt6Tk">
    <mxGraphModel dx="1050" dy="566" grid="1" gridSize="10" guides="1" tooltips="1" connect="1" arrows="1" fold="1" page="1" pageScale="1" pageWidth="827" pageHeight="1169" math="1" shadow="0">
      <root>
        <mxCell id="0" />
        <mxCell id="1" parent="0" />
        <mxCell id="DFPSUeH-C1rkWOGnpKPu-4" style="edgeStyle=orthogonalEdgeStyle;rounded=0;orthogonalLoop=1;jettySize=auto;html=1;entryX=0.5;entryY=0;entryDx=0;entryDy=0;" edge="1" parent="1" source="DFPSUeH-C1rkWOGnpKPu-2" target="DFPSUeH-C1rkWOGnpKPu-3">
          <mxGeometry relative="1" as="geometry" />
        </mxCell>
        <mxCell id="DFPSUeH-C1rkWOGnpKPu-2" value="Начало" style="ellipse;whiteSpace=wrap;html=1;" vertex="1" parent="1">
          <mxGeometry x="354" y="40" width="120" height="80" as="geometry" />
        </mxCell>
        <mxCell id="DFPSUeH-C1rkWOGnpKPu-41" style="edgeStyle=orthogonalEdgeStyle;rounded=0;orthogonalLoop=1;jettySize=auto;html=1;" edge="1" parent="1" source="DFPSUeH-C1rkWOGnpKPu-3" target="DFPSUeH-C1rkWOGnpKPu-5">
          <mxGeometry relative="1" as="geometry" />
        </mxCell>
        <mxCell id="DFPSUeH-C1rkWOGnpKPu-3" value="&lt;div style=&quot;text-align: left;&quot;&gt;&lt;span style=&quot;background-color: initial;&quot;&gt;FILE T1, T2&lt;/span&gt;&lt;/div&gt;&lt;div style=&quot;text-align: left;&quot;&gt;&lt;span style=&quot;background-color: initial;&quot;&gt;Call_b{&lt;/span&gt;&lt;/div&gt;&lt;div style=&quot;text-align: left;&quot;&gt;&lt;span style=&quot;white-space: pre;&quot;&gt;&#x9;&lt;/span&gt;city,&lt;br&gt;&lt;/div&gt;&lt;div style=&quot;text-align: left;&quot;&gt;&lt;span style=&quot;white-space: pre;&quot;&gt;&#x9;&lt;/span&gt;minutes&lt;br&gt;&lt;/div&gt;&lt;div style=&quot;text-align: left;&quot;&gt;&lt;span style=&quot;background-color: initial;&quot;&gt;}&lt;/span&gt;&lt;/div&gt;&lt;div style=&quot;text-align: left;&quot;&gt;&lt;span style=&quot;background-color: initial;&quot;&gt;hashTable&lt;/span&gt;&lt;/div&gt;&lt;div style=&quot;text-align: left;&quot;&gt;j = 0&lt;/div&gt;" style="shape=parallelogram;perimeter=parallelogramPerimeter;whiteSpace=wrap;html=1;fixedSize=1;" vertex="1" parent="1">
          <mxGeometry x="319" y="150" width="190" height="120" as="geometry" />
        </mxCell>
        <mxCell id="DFPSUeH-C1rkWOGnpKPu-7" style="edgeStyle=orthogonalEdgeStyle;rounded=0;orthogonalLoop=1;jettySize=auto;html=1;entryX=0.5;entryY=0;entryDx=0;entryDy=0;" edge="1" parent="1" source="DFPSUeH-C1rkWOGnpKPu-5" target="DFPSUeH-C1rkWOGnpKPu-6">
          <mxGeometry relative="1" as="geometry" />
        </mxCell>
        <mxCell id="DFPSUeH-C1rkWOGnpKPu-9" value="Истина" style="edgeLabel;html=1;align=center;verticalAlign=middle;resizable=0;points=[];" vertex="1" connectable="0" parent="DFPSUeH-C1rkWOGnpKPu-7">
          <mxGeometry x="-0.08" y="-2" relative="1" as="geometry">
            <mxPoint as="offset" />
          </mxGeometry>
        </mxCell>
        <mxCell id="DFPSUeH-C1rkWOGnpKPu-5" value="j &amp;lt; T1.lines_count" style="rhombus;whiteSpace=wrap;html=1;" vertex="1" parent="1">
          <mxGeometry x="349" y="290" width="130" height="80" as="geometry" />
        </mxCell>
        <mxCell id="DFPSUeH-C1rkWOGnpKPu-8" style="edgeStyle=orthogonalEdgeStyle;rounded=0;orthogonalLoop=1;jettySize=auto;html=1;entryX=1;entryY=0.5;entryDx=0;entryDy=0;" edge="1" parent="1" source="DFPSUeH-C1rkWOGnpKPu-6" target="DFPSUeH-C1rkWOGnpKPu-5">
          <mxGeometry relative="1" as="geometry">
            <Array as="points">
              <mxPoint x="620" y="460" />
              <mxPoint x="620" y="330" />
            </Array>
          </mxGeometry>
        </mxCell>
        <mxCell id="DFPSUeH-C1rkWOGnpKPu-15" style="edgeStyle=orthogonalEdgeStyle;rounded=0;orthogonalLoop=1;jettySize=auto;html=1;entryX=0.5;entryY=0;entryDx=0;entryDy=0;" edge="1" parent="1" source="DFPSUeH-C1rkWOGnpKPu-6" target="DFPSUeH-C1rkWOGnpKPu-10">
          <mxGeometry relative="1" as="geometry" />
        </mxCell>
        <mxCell id="DFPSUeH-C1rkWOGnpKPu-6" value="hashTable[hash(T1.line[j].city)] = Call_b.init();&lt;br&gt;hashTable[hash(T1.line[j].city)].minutes += T1.line[j].minutes;&lt;br&gt;hashTable[hash(T1.line[j].city)].city = T1.line[j].city;&lt;br&gt;j++;" style="rounded=0;whiteSpace=wrap;html=1;" vertex="1" parent="1">
          <mxGeometry x="229" y="410" width="370" height="100" as="geometry" />
        </mxCell>
        <mxCell id="DFPSUeH-C1rkWOGnpKPu-16" style="edgeStyle=orthogonalEdgeStyle;rounded=0;orthogonalLoop=1;jettySize=auto;html=1;" edge="1" parent="1" source="DFPSUeH-C1rkWOGnpKPu-10" target="DFPSUeH-C1rkWOGnpKPu-11">
          <mxGeometry relative="1" as="geometry" />
        </mxCell>
        <mxCell id="DFPSUeH-C1rkWOGnpKPu-10" value="t = 0&lt;br&gt;array" style="shape=parallelogram;perimeter=parallelogramPerimeter;whiteSpace=wrap;html=1;fixedSize=1;" vertex="1" parent="1">
          <mxGeometry x="354" y="530" width="120" height="80" as="geometry" />
        </mxCell>
        <mxCell id="DFPSUeH-C1rkWOGnpKPu-14" style="edgeStyle=orthogonalEdgeStyle;rounded=0;orthogonalLoop=1;jettySize=auto;html=1;" edge="1" parent="1" source="DFPSUeH-C1rkWOGnpKPu-11">
          <mxGeometry relative="1" as="geometry">
            <mxPoint x="414" y="740" as="targetPoint" />
          </mxGeometry>
        </mxCell>
        <mxCell id="DFPSUeH-C1rkWOGnpKPu-40" style="edgeStyle=orthogonalEdgeStyle;rounded=0;orthogonalLoop=1;jettySize=auto;html=1;entryX=0;entryY=0.5;entryDx=0;entryDy=0;" edge="1" parent="1" source="DFPSUeH-C1rkWOGnpKPu-11" target="DFPSUeH-C1rkWOGnpKPu-25">
          <mxGeometry relative="1" as="geometry">
            <Array as="points">
              <mxPoint x="200" y="670" />
              <mxPoint x="200" y="1260" />
            </Array>
          </mxGeometry>
        </mxCell>
        <mxCell id="DFPSUeH-C1rkWOGnpKPu-42" value="Ложь" style="edgeLabel;html=1;align=center;verticalAlign=middle;resizable=0;points=[];" vertex="1" connectable="0" parent="DFPSUeH-C1rkWOGnpKPu-40">
          <mxGeometry x="-0.006" y="-2" relative="1" as="geometry">
            <mxPoint as="offset" />
          </mxGeometry>
        </mxCell>
        <mxCell id="DFPSUeH-C1rkWOGnpKPu-11" value="t &amp;lt; hashTable.size" style="rhombus;whiteSpace=wrap;html=1;" vertex="1" parent="1">
          <mxGeometry x="341" y="630" width="146" height="80" as="geometry" />
        </mxCell>
        <mxCell id="DFPSUeH-C1rkWOGnpKPu-27" style="edgeStyle=orthogonalEdgeStyle;rounded=0;orthogonalLoop=1;jettySize=auto;html=1;" edge="1" parent="1" source="DFPSUeH-C1rkWOGnpKPu-17" target="DFPSUeH-C1rkWOGnpKPu-18">
          <mxGeometry relative="1" as="geometry" />
        </mxCell>
        <mxCell id="DFPSUeH-C1rkWOGnpKPu-17" value="x = 0" style="shape=parallelogram;perimeter=parallelogramPerimeter;whiteSpace=wrap;html=1;fixedSize=1;" vertex="1" parent="1">
          <mxGeometry x="354" y="740" width="120" height="60" as="geometry" />
        </mxCell>
        <mxCell id="DFPSUeH-C1rkWOGnpKPu-28" style="edgeStyle=orthogonalEdgeStyle;rounded=0;orthogonalLoop=1;jettySize=auto;html=1;entryX=0.5;entryY=0;entryDx=0;entryDy=0;" edge="1" parent="1" source="DFPSUeH-C1rkWOGnpKPu-18" target="DFPSUeH-C1rkWOGnpKPu-20">
          <mxGeometry relative="1" as="geometry" />
        </mxCell>
        <mxCell id="DFPSUeH-C1rkWOGnpKPu-31" value="Истина" style="edgeLabel;html=1;align=center;verticalAlign=middle;resizable=0;points=[];" vertex="1" connectable="0" parent="DFPSUeH-C1rkWOGnpKPu-28">
          <mxGeometry x="0.5733" y="2" relative="1" as="geometry">
            <mxPoint as="offset" />
          </mxGeometry>
        </mxCell>
        <mxCell id="DFPSUeH-C1rkWOGnpKPu-37" style="edgeStyle=orthogonalEdgeStyle;rounded=0;orthogonalLoop=1;jettySize=auto;html=1;entryX=0;entryY=0.5;entryDx=0;entryDy=0;" edge="1" parent="1" source="DFPSUeH-C1rkWOGnpKPu-18" target="DFPSUeH-C1rkWOGnpKPu-35">
          <mxGeometry relative="1" as="geometry">
            <Array as="points">
              <mxPoint x="280" y="880" />
              <mxPoint x="280" y="1170" />
            </Array>
          </mxGeometry>
        </mxCell>
        <mxCell id="DFPSUeH-C1rkWOGnpKPu-38" value="Ложь" style="edgeLabel;html=1;align=center;verticalAlign=middle;resizable=0;points=[];" vertex="1" connectable="0" parent="DFPSUeH-C1rkWOGnpKPu-37">
          <mxGeometry x="-0.2886" y="-2" relative="1" as="geometry">
            <mxPoint as="offset" />
          </mxGeometry>
        </mxCell>
        <mxCell id="DFPSUeH-C1rkWOGnpKPu-18" value="x &amp;lt; array.size" style="rhombus;whiteSpace=wrap;html=1;" vertex="1" parent="1">
          <mxGeometry x="346" y="840" width="136" height="80" as="geometry" />
        </mxCell>
        <mxCell id="DFPSUeH-C1rkWOGnpKPu-23" style="edgeStyle=orthogonalEdgeStyle;rounded=0;orthogonalLoop=1;jettySize=auto;html=1;entryX=1;entryY=0.5;entryDx=0;entryDy=0;" edge="1" parent="1" source="DFPSUeH-C1rkWOGnpKPu-20" target="DFPSUeH-C1rkWOGnpKPu-18">
          <mxGeometry relative="1" as="geometry">
            <Array as="points">
              <mxPoint x="560" y="980" />
              <mxPoint x="560" y="880" />
            </Array>
          </mxGeometry>
        </mxCell>
        <mxCell id="DFPSUeH-C1rkWOGnpKPu-30" value="Ложь" style="edgeLabel;html=1;align=center;verticalAlign=middle;resizable=0;points=[];" vertex="1" connectable="0" parent="DFPSUeH-C1rkWOGnpKPu-23">
          <mxGeometry x="-0.8707" y="3" relative="1" as="geometry">
            <mxPoint as="offset" />
          </mxGeometry>
        </mxCell>
        <mxCell id="DFPSUeH-C1rkWOGnpKPu-20" value="array[x] &amp;gt;= hashTable[t]" style="rhombus;whiteSpace=wrap;html=1;" vertex="1" parent="1">
          <mxGeometry x="323.5" y="940" width="181" height="80" as="geometry" />
        </mxCell>
        <mxCell id="DFPSUeH-C1rkWOGnpKPu-24" style="edgeStyle=orthogonalEdgeStyle;rounded=0;orthogonalLoop=1;jettySize=auto;html=1;entryX=1;entryY=0.5;entryDx=0;entryDy=0;" edge="1" parent="1" source="DFPSUeH-C1rkWOGnpKPu-21" target="DFPSUeH-C1rkWOGnpKPu-18">
          <mxGeometry relative="1" as="geometry">
            <Array as="points">
              <mxPoint x="560" y="1070" />
              <mxPoint x="560" y="880" />
            </Array>
          </mxGeometry>
        </mxCell>
        <mxCell id="DFPSUeH-C1rkWOGnpKPu-21" value="arrray.insert(x, hashTable[t]);&lt;br&gt;x++;" style="rounded=0;whiteSpace=wrap;html=1;" vertex="1" parent="1">
          <mxGeometry x="319" y="1040" width="206" height="60" as="geometry" />
        </mxCell>
        <mxCell id="DFPSUeH-C1rkWOGnpKPu-22" style="edgeStyle=orthogonalEdgeStyle;rounded=0;orthogonalLoop=1;jettySize=auto;html=1;entryX=0.461;entryY=0.007;entryDx=0;entryDy=0;entryPerimeter=0;" edge="1" parent="1" source="DFPSUeH-C1rkWOGnpKPu-20" target="DFPSUeH-C1rkWOGnpKPu-21">
          <mxGeometry relative="1" as="geometry" />
        </mxCell>
        <mxCell id="DFPSUeH-C1rkWOGnpKPu-29" value="Истина" style="edgeLabel;html=1;align=center;verticalAlign=middle;resizable=0;points=[];" vertex="1" connectable="0" parent="DFPSUeH-C1rkWOGnpKPu-22">
          <mxGeometry x="0.1519" y="-2" relative="1" as="geometry">
            <mxPoint as="offset" />
          </mxGeometry>
        </mxCell>
        <mxCell id="DFPSUeH-C1rkWOGnpKPu-36" style="edgeStyle=orthogonalEdgeStyle;rounded=0;orthogonalLoop=1;jettySize=auto;html=1;" edge="1" parent="1" source="DFPSUeH-C1rkWOGnpKPu-25" target="DFPSUeH-C1rkWOGnpKPu-26">
          <mxGeometry relative="1" as="geometry" />
        </mxCell>
        <mxCell id="DFPSUeH-C1rkWOGnpKPu-25" value="array" style="shape=parallelogram;perimeter=parallelogramPerimeter;whiteSpace=wrap;html=1;fixedSize=1;" vertex="1" parent="1">
          <mxGeometry x="354" y="1230" width="120" height="60" as="geometry" />
        </mxCell>
        <mxCell id="DFPSUeH-C1rkWOGnpKPu-26" value="Конец" style="ellipse;whiteSpace=wrap;html=1;" vertex="1" parent="1">
          <mxGeometry x="354" y="1310" width="120" height="80" as="geometry" />
        </mxCell>
        <mxCell id="DFPSUeH-C1rkWOGnpKPu-39" style="edgeStyle=orthogonalEdgeStyle;rounded=0;orthogonalLoop=1;jettySize=auto;html=1;entryX=1;entryY=0.5;entryDx=0;entryDy=0;" edge="1" parent="1" source="DFPSUeH-C1rkWOGnpKPu-35" target="DFPSUeH-C1rkWOGnpKPu-11">
          <mxGeometry relative="1" as="geometry">
            <Array as="points">
              <mxPoint x="620" y="1170" />
              <mxPoint x="620" y="670" />
            </Array>
          </mxGeometry>
        </mxCell>
        <mxCell id="DFPSUeH-C1rkWOGnpKPu-35" value="t++;" style="rounded=0;whiteSpace=wrap;html=1;" vertex="1" parent="1">
          <mxGeometry x="362" y="1140" width="120" height="60" as="geometry" />
        </mxCell>
      </root>
    </mxGraphModel>
  </diagram>
</mxfile>
